<svg xmlns="http://www.w3.org/2000/svg" xmlns:xlink="http://www.w3.org/1999/xlink" width="500" zoomAndPan="magnify" viewBox="0 0 375 374.999991" height="500" preserveAspectRatio="xMidYMid meet" version="1.0"><defs><g/><clipPath id="72f05a7ea7"><path d="M 0 364 L 8 364 L 8 374.960938 L 0 374.960938 Z M 0 364 " clip-rule="nonzero"/></clipPath><clipPath id="bb64ec4c2a"><path d="M 5 122 L 366.75 122 L 366.75 359 L 5 359 Z M 5 122 " clip-rule="nonzero"/></clipPath><clipPath id="eb7baa4924"><path d="M 105 13.855469 L 150 13.855469 L 150 58 L 105 58 Z M 105 13.855469 " clip-rule="nonzero"/></clipPath><clipPath id="a2b0a1ac00"><path d="M 31.179688 33 L 66 33 L 66 68 L 31.179688 68 Z M 31.179688 33 " clip-rule="nonzero"/></clipPath><clipPath id="5f564848c8"><path d="M 187 157 L 236.679688 157 L 236.679688 207 L 187 207 Z M 187 157 " clip-rule="nonzero"/></clipPath></defs><rect x="-37.5" width="450" fill="#ffffff" y="-37.499999" height="449.999989" fill-opacity="1"/><rect x="-37.5" width="450" fill="#4b1e3d" y="-37.499999" height="449.999989" fill-opacity="1"/><g clip-path="url(#72f05a7ea7)"><path fill="#ff931e" d="M 3.058594 374.890625 C 2.851562 374.890625 2.644531 374.863281 2.425781 374.8125 C 0.9375 374.464844 0 372.976562 0.347656 371.472656 C 0.347656 371.472656 0.804688 369.460938 1.96875 365.925781 C 2.4375 364.476562 3.972656 363.648438 5.484375 364.148438 C 6.945312 364.628906 7.738281 366.203125 7.261719 367.664062 C 6.226562 370.835938 5.789062 372.664062 5.769531 372.734375 C 5.476562 374.019531 4.332031 374.890625 3.058594 374.890625 Z M 3.058594 374.890625 " fill-opacity="1" fill-rule="nonzero"/></g><g clip-path="url(#bb64ec4c2a)"><path fill="#ff931e" d="M 8.621094 358.96875 C 8.25 358.96875 7.878906 358.898438 7.53125 358.746094 C 6.117188 358.144531 5.453125 356.503906 6.0625 355.089844 C 7.414062 351.925781 9.035156 348.394531 10.984375 344.59375 C 11.691406 343.207031 13.355469 342.691406 14.738281 343.386719 C 16.109375 344.09375 16.644531 345.769531 15.945312 347.140625 C 14.0625 350.808594 12.484375 354.21875 11.179688 357.277344 C 10.734375 358.332031 9.699219 358.96875 8.621094 358.96875 Z M 19.015625 338.703125 C 18.527344 338.703125 18.027344 338.570312 17.578125 338.304688 C 16.261719 337.511719 15.839844 335.796875 16.632812 334.480469 C 18.527344 331.335938 20.617188 328.085938 22.9375 324.761719 C 23.828125 323.496094 25.558594 323.195312 26.820312 324.070312 C 28.085938 324.953125 28.390625 326.695312 27.507812 327.953125 C 25.253906 331.167969 23.230469 334.316406 21.402344 337.351562 C 20.878906 338.222656 19.964844 338.703125 19.015625 338.703125 Z M 32.035156 320.019531 C 31.425781 320.019531 30.804688 319.816406 30.292969 319.410156 C 29.097656 318.445312 28.902344 316.695312 29.859375 315.492188 C 32.1875 312.582031 34.691406 309.636719 37.382812 306.695312 C 38.425781 305.550781 40.191406 305.484375 41.3125 306.515625 C 42.453125 307.546875 42.53125 309.3125 41.496094 310.449219 C 38.894531 313.304688 36.476562 316.148438 34.214844 318.972656 C 33.660156 319.660156 32.851562 320.019531 32.035156 320.019531 Z M 47.375 303.195312 C 46.644531 303.195312 45.914062 302.910156 45.371094 302.347656 C 44.304688 301.242188 44.328125 299.480469 45.4375 298.40625 C 48.136719 295.796875 50.988281 293.207031 54.027344 290.644531 C 55.203125 289.640625 56.953125 289.800781 57.957031 290.972656 C 58.945312 292.148438 58.792969 293.90625 57.617188 294.898438 C 54.691406 297.375 51.925781 299.886719 49.3125 302.410156 C 48.769531 302.933594 48.070312 303.195312 47.375 303.195312 Z M 64.726562 288.464844 C 63.878906 288.464844 63.039062 288.078125 62.496094 287.34375 C 61.570312 286.109375 61.832031 284.363281 63.0625 283.449219 C 66.078125 281.195312 69.234375 278.988281 72.542969 276.828125 C 73.828125 275.988281 75.558594 276.347656 76.394531 277.636719 C 77.246094 278.921875 76.875 280.652344 75.589844 281.496094 C 72.390625 283.589844 69.320312 285.734375 66.390625 287.910156 C 65.890625 288.285156 65.304688 288.464844 64.726562 288.464844 Z M 83.765625 276.007812 C 82.796875 276.007812 81.859375 275.503906 81.347656 274.601562 C 80.585938 273.269531 81.042969 271.566406 82.382812 270.804688 C 85.648438 268.933594 89.035156 267.117188 92.5625 265.363281 C 93.976562 264.699219 95.621094 265.253906 96.296875 266.621094 C 96.980469 267.996094 96.425781 269.671875 95.042969 270.359375 C 91.625 272.054688 88.328125 273.820312 85.148438 275.636719 C 84.714844 275.886719 84.234375 276.007812 83.765625 276.007812 Z M 104.144531 265.859375 C 103.066406 265.859375 102.042969 265.226562 101.585938 264.175781 C 100.976562 262.761719 101.628906 261.125 103.042969 260.515625 C 106.496094 259.023438 110.066406 257.597656 113.734375 256.246094 C 115.238281 255.699219 116.792969 256.453125 117.316406 257.894531 C 117.847656 259.335938 117.109375 260.933594 115.671875 261.46875 C 112.089844 262.789062 108.605469 264.183594 105.242188 265.628906 C 104.882812 265.789062 104.515625 265.859375 104.144531 265.859375 Z M 125.480469 257.984375 C 124.292969 257.984375 123.195312 257.222656 122.824219 256.03125 C 122.355469 254.5625 123.183594 253.003906 124.652344 252.539062 C 128.234375 251.417969 131.925781 250.363281 135.714844 249.371094 C 137.269531 248.953125 138.730469 249.875 139.121094 251.359375 C 139.5 252.851562 138.621094 254.375 137.128906 254.757812 C 133.425781 255.726562 129.824219 256.761719 126.308594 257.859375 C 126.035156 257.949219 125.753906 257.984375 125.480469 257.984375 Z M 147.503906 252.230469 C 146.21875 252.230469 145.054688 251.335938 144.78125 250.027344 C 144.453125 248.523438 145.414062 247.042969 146.914062 246.71875 C 150.59375 245.933594 154.347656 245.210938 158.203125 244.558594 C 159.8125 244.289062 161.164062 245.320312 161.414062 246.835938 C 161.675781 248.355469 160.652344 249.792969 159.140625 250.054688 C 155.371094 250.695312 151.683594 251.398438 148.089844 252.167969 C 147.894531 252.207031 147.6875 252.230469 147.503906 252.230469 Z M 169.9375 248.414062 C 168.554688 248.414062 167.359375 247.390625 167.171875 245.984375 C 166.976562 244.460938 168.054688 243.0625 169.578125 242.863281 C 173.3125 242.386719 177.113281 241.972656 181 241.621094 C 182.6875 241.519531 183.894531 242.613281 184.023438 244.144531 C 184.167969 245.679688 183.035156 247.027344 181.5 247.167969 C 177.679688 247.511719 173.945312 247.925781 170.296875 248.394531 C 170.179688 248.410156 170.058594 248.414062 169.9375 248.414062 Z M 192.613281 246.34375 C 191.144531 246.34375 189.914062 245.195312 189.828125 243.707031 C 189.75 242.175781 190.925781 240.859375 192.460938 240.777344 C 196.21875 240.5625 200.027344 240.417969 203.933594 240.328125 C 205.492188 240.445312 206.753906 241.515625 206.785156 243.050781 C 206.820312 244.589844 205.601562 245.867188 204.066406 245.902344 C 200.222656 245.988281 196.457031 246.136719 192.765625 246.335938 C 192.710938 246.34375 192.667969 246.34375 192.613281 246.34375 Z M 224.847656 245.894531 C 222.507812 245.894531 220.144531 245.875 217.738281 245.839844 L 215.355469 245.8125 C 213.820312 245.804688 212.578125 244.546875 212.589844 243.011719 C 212.601562 241.476562 213.839844 240.242188 215.375 240.242188 L 215.398438 240.242188 L 217.8125 240.269531 C 220.1875 240.300781 222.527344 240.324219 224.847656 240.324219 L 226.742188 240.320312 C 228.515625 240.058594 229.527344 241.539062 229.550781 243.082031 C 229.558594 244.617188 228.332031 245.878906 226.785156 245.890625 Z M 238.160156 245.707031 C 236.65625 245.707031 235.417969 244.515625 235.375 243 C 235.328125 241.460938 236.539062 240.183594 238.074219 240.132812 C 241.949219 240.019531 245.703125 239.855469 249.371094 239.640625 C 250.710938 239.398438 252.234375 240.714844 252.324219 242.257812 C 252.410156 243.789062 251.234375 245.105469 249.699219 245.199219 C 245.988281 245.417969 242.167969 245.589844 238.246094 245.707031 Z M 260.878906 244.355469 C 259.453125 244.355469 258.234375 243.273438 258.101562 241.824219 C 257.960938 240.292969 259.09375 238.9375 260.628906 238.796875 C 264.480469 238.441406 268.214844 238.027344 271.839844 237.558594 C 273.289062 237.328125 274.769531 238.4375 274.964844 239.964844 C 275.160156 241.496094 274.082031 242.886719 272.558594 243.089844 C 268.871094 243.566406 265.070312 243.980469 261.128906 244.34375 C 261.054688 244.351562 260.964844 244.355469 260.878906 244.355469 Z M 283.457031 241.40625 C 282.128906 241.40625 280.941406 240.453125 280.714844 239.101562 C 280.453125 237.582031 281.464844 236.140625 282.976562 235.878906 C 286.820312 235.210938 290.488281 234.476562 293.992188 233.675781 C 295.484375 233.320312 296.976562 234.273438 297.335938 235.769531 C 297.671875 237.273438 296.738281 238.761719 295.234375 239.105469 C 291.640625 239.925781 287.863281 240.683594 283.933594 241.363281 C 283.773438 241.394531 283.609375 241.40625 283.457031 241.40625 Z M 305.640625 236.324219 C 304.433594 236.324219 303.324219 235.535156 302.964844 234.324219 C 302.539062 232.847656 303.378906 231.296875 304.859375 230.867188 C 308.601562 229.769531 312.128906 228.589844 315.472656 227.335938 C 316.917969 226.761719 318.507812 227.523438 319.0625 228.964844 C 319.597656 230.40625 318.867188 232.011719 317.429688 232.550781 C 313.957031 233.855469 310.300781 235.078125 306.425781 236.210938 C 306.164062 236.289062 305.902344 236.324219 305.640625 236.324219 Z M 326.902344 228.246094 C 325.867188 228.246094 324.875 227.667969 324.398438 226.679688 C 323.722656 225.296875 324.300781 223.625 325.683594 222.957031 C 329.121094 221.28125 332.367188 219.46875 335.328125 217.570312 C 336.589844 216.75 338.34375 217.113281 339.171875 218.40625 C 340.007812 219.703125 339.628906 221.429688 338.332031 222.261719 C 335.195312 224.273438 331.757812 226.195312 328.121094 227.960938 C 327.730469 228.152344 327.316406 228.246094 326.902344 228.246094 Z M 345.929688 215.894531 C 345.15625 215.894531 344.382812 215.574219 343.828125 214.941406 C 342.816406 213.78125 342.9375 212.027344 344.089844 211.011719 C 346.921875 208.542969 349.425781 205.898438 351.558594 203.167969 C 352.496094 201.949219 354.246094 201.71875 355.464844 202.679688 C 356.6875 203.621094 356.902344 205.371094 355.957031 206.585938 C 353.617188 209.597656 350.851562 212.5 347.769531 215.203125 C 347.238281 215.664062 346.582031 215.894531 345.929688 215.894531 Z M 359.691406 197.984375 C 359.296875 197.984375 358.894531 197.902344 358.515625 197.722656 C 357.121094 197.074219 356.511719 195.414062 357.164062 194.023438 C 358.675781 190.777344 359.765625 187.367188 360.417969 183.890625 C 360.703125 182.382812 362.0625 181.382812 363.675781 181.664062 C 365.1875 181.949219 366.1875 183.40625 365.90625 184.914062 C 365.164062 188.851562 363.925781 192.710938 362.214844 196.371094 C 361.746094 197.382812 360.734375 197.984375 359.691406 197.984375 Z M 363.890625 175.859375 C 362.421875 175.859375 361.191406 174.710938 361.105469 173.226562 C 360.921875 169.71875 360.320312 166.140625 359.34375 162.601562 C 358.9375 161.121094 359.808594 159.585938 361.289062 159.171875 C 362.824219 158.765625 364.304688 159.640625 364.71875 161.121094 C 365.796875 165.042969 366.460938 169.015625 366.679688 172.921875 C 366.753906 174.457031 365.578125 175.773438 364.042969 175.855469 C 363.992188 175.859375 363.945312 175.859375 363.890625 175.859375 Z M 357.980469 154.023438 C 356.945312 154.023438 355.957031 153.453125 355.476562 152.464844 C 353.910156 149.253906 352.027344 146.085938 349.894531 143.0625 C 349 141.804688 349.304688 140.070312 350.558594 139.183594 C 351.808594 138.289062 353.550781 138.582031 354.441406 139.851562 C 356.75 143.117188 358.785156 146.539062 360.484375 150.015625 C 361.160156 151.398438 360.582031 153.066406 359.199219 153.742188 C 358.808594 153.933594 358.394531 154.023438 357.980469 154.023438 Z M 344.984375 135.433594 C 344.242188 135.433594 343.503906 135.140625 342.957031 134.558594 C 340.488281 131.933594 337.765625 129.421875 334.882812 127.085938 C 333.683594 126.117188 333.5 124.367188 334.46875 123.167969 C 335.457031 121.972656 337.210938 121.796875 338.386719 122.757812 C 341.46875 125.25 344.375 127.9375 347.007812 130.738281 C 348.0625 131.859375 348.007812 133.621094 346.898438 134.675781 C 346.355469 135.183594 345.667969 135.433594 344.984375 135.433594 Z M 344.984375 135.433594 " fill-opacity="1" fill-rule="nonzero"/></g><path fill="#ff931e" d="M 326.707031 120.804688 C 326.214844 120.804688 325.726562 120.679688 325.269531 120.40625 C 323.734375 119.484375 322.175781 118.621094 320.585938 117.804688 C 319.214844 117.109375 318.671875 115.425781 319.367188 114.054688 C 320.066406 112.691406 321.742188 112.136719 323.113281 112.84375 C 324.832031 113.714844 326.5 114.644531 328.144531 115.628906 C 329.460938 116.417969 329.882812 118.132812 329.101562 119.449219 C 328.578125 120.320312 327.652344 120.804688 326.707031 120.804688 Z M 326.707031 120.804688 " fill-opacity="1" fill-rule="nonzero"/><path fill="#ff931e" d="M 303.914062 45.523438 C 297.167969 42.769531 288.742188 48.273438 284.757812 58.050781 C 282.359375 63.925781 282.425781 69.625 284.144531 73.988281 C 279.820312 72.738281 275.800781 72.476562 272.546875 73.390625 C 269.230469 70.910156 262.140625 64.460938 262.125 58.828125 C 262.109375 56.523438 263.292969 54.535156 265.78125 52.746094 C 266.769531 51.996094 266.925781 50.769531 266.246094 49.847656 C 265.574219 48.910156 264.273438 48.699219 263.347656 49.371094 C 259.769531 51.980469 257.949219 55.140625 257.953125 58.855469 C 257.988281 65.828125 264.898438 72.503906 268.53125 75.539062 C 268.019531 75.957031 267.464844 76.320312 267.042969 76.84375 C 266.625 77.363281 266.386719 77.988281 266.089844 78.574219 C 262.34375 75.679688 254.335938 70.375 247.515625 71.84375 C 243.90625 72.609375 241.199219 75.082031 239.421875 79.132812 C 238.964844 80.183594 239.449219 81.40625 240.511719 81.863281 C 241.546875 82.320312 242.699219 81.914062 243.242188 80.785156 C 244.472656 77.960938 246.140625 76.386719 248.394531 75.90625 C 253.902344 74.710938 261.71875 80.253906 264.855469 82.960938 C 264.664062 86.328125 265.78125 90.195312 267.929688 94.144531 C 263.296875 93.414062 257.71875 94.578125 252.496094 98.179688 C 243.800781 104.171875 240.234375 113.578125 244.382812 119.578125 C 246.453125 122.574219 250.082031 124.15625 254.574219 124.035156 C 258.53125 123.933594 262.773438 122.414062 266.621094 119.90625 C 265.765625 123.703125 265.636719 127.507812 266.519531 130.695312 C 267.59375 134.621094 269.867188 137.238281 272.914062 138.058594 C 276.625 139.082031 280.613281 137.140625 283.699219 133.304688 C 285.558594 130.988281 287.105469 127.980469 288.058594 124.496094 C 289.140625 120.574219 289.234375 116.691406 288.503906 113.375 C 298.363281 118.296875 307.804688 118.484375 312.152344 113.078125 C 316.515625 107.648438 314.253906 98.425781 307.261719 89.828125 C 310.617188 89.855469 314.375 89.074219 318.121094 87.101562 C 321.3125 85.414062 323.925781 83.265625 325.789062 80.949219 C 328.882812 77.101562 329.917969 72.789062 328.125 69.367188 C 325.359375 64.167969 317.121094 63.363281 309.019531 67.164062 C 312.628906 57.632812 310.503906 48.210938 303.914062 45.523438 Z M 304.335938 92.828125 C 301.300781 108.957031 291.90625 109.886719 290.972656 109.929688 C 289.191406 109.082031 287.398438 108.082031 285.617188 106.894531 C 288.0625 105.9375 291.070312 104.171875 293.820312 100.75 C 296.152344 97.851562 298.113281 93.394531 299.519531 87.722656 C 301.316406 89.375 302.949219 91.082031 304.335938 92.828125 Z M 296.742188 80.207031 C 296.933594 80.144531 297.121094 80.035156 297.316406 79.960938 C 297.28125 80.136719 297.160156 80.316406 297.140625 80.492188 C 297.003906 80.398438 296.875 80.300781 296.742188 80.207031 Z M 270.285156 79.445312 C 274.234375 74.535156 285.851562 77.0625 296.082031 84.835938 C 292.921875 100.808594 284.09375 103.414062 281.46875 103.792969 C 271.417969 95.441406 266.289062 84.417969 270.285156 79.445312 Z M 277.058594 105.410156 C 277.011719 105.429688 276.972656 105.476562 276.925781 105.496094 C 276.9375 105.425781 276.917969 105.359375 276.925781 105.292969 C 276.96875 105.332031 277.015625 105.371094 277.058594 105.410156 Z M 247.808594 117.207031 C 245.855469 114.386719 246.957031 109.917969 250.152344 105.941406 C 251.417969 104.371094 253.003906 102.878906 254.847656 101.609375 C 261.394531 97.09375 269.230469 96.601562 271.945312 100.550781 C 274.664062 104.503906 271.410156 111.683594 264.90625 116.148438 C 261.542969 118.464844 257.84375 119.785156 254.464844 119.882812 C 251.421875 119.960938 249.054688 119.015625 247.8125 117.207031 Z M 283.453125 111.355469 C 285.078125 114.207031 285.304688 118.824219 284.046875 123.398438 C 282.019531 130.726562 277.160156 134.90625 274.003906 134.058594 C 271.894531 133.46875 270.929688 131.003906 270.535156 129.585938 C 269.75 126.765625 269.855469 123.265625 270.824219 119.753906 C 271.597656 116.9375 272.835938 114.410156 274.394531 112.476562 C 274.78125 111.996094 275.175781 111.5625 275.589844 111.167969 C 276.652344 110.144531 278.75 108.519531 280.871094 109.097656 C 281.894531 109.378906 282.765625 110.136719 283.453125 111.355469 Z M 308.910156 110.472656 C 306.746094 113.164062 302.257812 113.582031 296.972656 112.183594 C 298.808594 111.21875 300.765625 109.898438 302.640625 107.5625 C 304.53125 105.214844 306.109375 101.628906 307.351562 97.285156 C 310.398438 102.585938 311.246094 107.570312 308.910156 110.472656 Z M 324.449219 71.3125 C 325.953125 74.183594 322.960938 79.863281 316.183594 83.421875 C 309.4375 86.980469 303.050781 86.246094 301.527344 83.398438 C 300.023438 80.5 303.035156 74.859375 309.789062 71.285156 C 316.535156 67.726562 322.929688 68.445312 324.449219 71.3125 Z M 304.992188 66.285156 C 303.460938 70.054688 301.089844 73.171875 298.296875 75.117188 C 295.789062 76.851562 293.296875 77.347656 291.273438 76.515625 C 286.824219 74.714844 285.613281 66.96875 288.613281 59.605469 C 289.457031 57.53125 290.574219 55.660156 291.835938 54.089844 C 295.03125 50.117188 299.160156 48.078125 302.335938 49.378906 C 306.785156 51.183594 307.992188 58.921875 304.992188 66.285156 Z M 304.992188 66.285156 " fill-opacity="1" fill-rule="nonzero"/><path fill="#ff931e" d="M 94.601562 64.136719 C 82.238281 64.136719 72.203125 74.179688 72.203125 86.566406 C 73.386719 116.320312 115.816406 116.320312 116.992188 86.566406 C 116.992188 74.179688 106.96875 64.136719 94.601562 64.136719 Z M 97.953125 101.3125 L 91.113281 101.3125 L 91.113281 79.519531 L 84.414062 81.484375 L 84.414062 76.300781 L 97.316406 71.832031 L 97.953125 71.832031 Z M 97.953125 101.3125 " fill-opacity="1" fill-rule="nonzero"/><path fill="#ff931e" d="M 204.316406 23.101562 C 190.828125 23.101562 179.894531 34.058594 179.894531 47.574219 C 181.179688 80.042969 227.46875 80.023438 228.753906 47.574219 C 228.753906 34.058594 217.808594 23.101562 204.316406 23.101562 Z M 215.851562 63.886719 C 215.851562 63.886719 211.316406 63.886719 206.328125 63.886719 C 200.230469 63.886719 193.457031 63.886719 193.457031 63.886719 L 193.457031 59.023438 C 196.347656 55.496094 207.824219 45.632812 207.589844 41.246094 C 207.652344 34.789062 199.859375 36.199219 200.246094 42.058594 C 200.246094 42.058594 192.796875 42.058594 192.796875 42.058594 C 192.765625 38.160156 194.910156 34.503906 198.363281 32.679688 C 205.015625 29.277344 215.527344 31.832031 215.0625 40.582031 C 214.777344 46.222656 211.574219 48.871094 207.363281 53.347656 C 207.363281 53.347656 203.21875 58.144531 203.21875 58.144531 L 215.851562 58.144531 Z M 215.851562 63.886719 " fill-opacity="1" fill-rule="nonzero"/><path fill="#ff931e" d="M 187.757812 86.566406 C 178.609375 86.566406 171.191406 94 171.191406 103.167969 C 171.949219 125.140625 203.570312 125.132812 204.324219 103.167969 C 204.324219 94 196.90625 86.566406 187.757812 86.566406 Z M 193.425781 112.632812 C 189.375 115.949219 179.6875 114.636719 179.847656 108.011719 C 179.847656 108.011719 184.914062 108.011719 184.914062 108.011719 C 184.867188 110.382812 188.34375 111.238281 189.839844 109.746094 C 191.007812 108.8125 190.78125 106.261719 189.808594 105.511719 C 188.871094 104.566406 186.386719 104.863281 185.082031 104.824219 C 185.082031 104.824219 185.082031 101.058594 185.082031 101.058594 C 187.34375 101.09375 190.425781 101.449219 190.289062 98.292969 C 190.550781 95.289062 185.398438 94.984375 185.226562 97.886719 C 185.226562 97.886719 180.1875 97.886719 180.1875 97.886719 C 180.175781 95.519531 181.636719 93.664062 183.796875 92.714844 C 186.582031 91.394531 191.15625 91.835938 193.246094 93.613281 C 196.394531 95.988281 195.886719 101.367188 191.960938 102.875 C 196.261719 104.097656 196.890625 110.128906 193.425781 112.632812 Z M 193.425781 112.632812 " fill-opacity="1" fill-rule="nonzero"/><path fill="#ff931e" d="M 65.171875 172.039062 C 55.785156 172.039062 48.171875 179.664062 48.171875 189.070312 C 48.949219 211.617188 81.398438 211.613281 82.171875 189.070312 C 82.171875 179.664062 74.5625 172.039062 65.171875 172.039062 Z M 72.015625 196.792969 C 68.933594 202.835938 57.320312 200.976562 57.367188 193.753906 C 57.367188 193.753906 62.5625 193.753906 62.5625 193.753906 C 62.90625 197.761719 68.300781 197.21875 67.804688 192.550781 C 68.207031 188.898438 63.820312 187.902344 61.914062 190.144531 C 61.914062 190.144531 57.800781 189.175781 57.800781 189.175781 L 59.167969 177.726562 L 72.226562 177.726562 L 72.226562 181.722656 L 63.371094 181.722656 L 62.867188 186.203125 C 70.035156 182.707031 75.359375 190.285156 72.015625 196.792969 Z M 72.015625 196.792969 " fill-opacity="1" fill-rule="nonzero"/><g clip-path="url(#eb7baa4924)"><path fill="#ff931e" d="M 127.714844 13.855469 C 115.683594 13.855469 105.933594 23.625 105.933594 35.679688 C 107.046875 64.609375 148.382812 64.601562 149.492188 35.679688 C 149.492188 23.625 139.742188 13.855469 127.714844 13.855469 Z M 138.027344 24.886719 L 127.332031 50.023438 L 120.328125 50.023438 L 131.039062 26.460938 L 117.398438 26.460938 L 117.398438 21.34375 L 138.027344 21.34375 Z M 138.027344 24.886719 " fill-opacity="1" fill-rule="nonzero"/></g><path fill="#ff931e" d="M 175 205.59375 L 183.226562 205.59375 L 183.226562 212.574219 L 175 212.574219 L 175 222.023438 L 167.40625 222.023438 L 167.40625 212.574219 L 159.15625 212.574219 L 159.15625 205.59375 L 167.40625 205.59375 L 167.40625 196.410156 L 175 196.410156 Z M 175 205.59375 " fill-opacity="1" fill-rule="nonzero"/><path fill="#ff931e" d="M 81.054688 149.75 L 108.140625 149.75 L 108.140625 161.488281 L 81.054688 161.488281 Z M 81.054688 149.75 " fill-opacity="1" fill-rule="nonzero"/><path fill="#ff931e" d="M 151.199219 85.761719 L 128.867188 85.761719 L 128.867188 79.480469 L 151.199219 79.480469 Z M 151.199219 96.371094 L 128.867188 96.371094 L 128.867188 90.085938 L 151.199219 90.085938 Z M 151.199219 96.371094 " fill-opacity="1" fill-rule="nonzero"/><path fill="#ff931e" d="M 227.875 128.769531 L 212.210938 128.769531 L 212.210938 125.101562 L 227.875 125.101562 Z M 217.238281 120.890625 C 217.136719 117.601562 222.917969 117.601562 222.820312 120.890625 C 222.917969 124.175781 217.136719 124.175781 217.238281 120.890625 Z M 217.238281 133.085938 C 217.136719 129.796875 222.917969 129.796875 222.820312 133.085938 C 222.917969 136.371094 217.136719 136.371094 217.238281 133.085938 Z M 217.238281 133.085938 " fill-opacity="1" fill-rule="nonzero"/><path fill="#ff931e" d="M 43.695312 91.085938 L 48.101562 86.582031 L 43.695312 82.0625 L 46.539062 79.359375 L 50.855469 83.773438 L 55.175781 79.359375 L 58.019531 82.0625 L 53.597656 86.582031 L 58.019531 91.085938 L 55.175781 93.785156 L 50.855469 89.386719 L 46.539062 93.785156 Z M 43.695312 91.085938 " fill-opacity="1" fill-rule="nonzero"/><g clip-path="url(#a2b0a1ac00)"><path fill="#ff931e" d="M 48.257812 33.65625 C 38.917969 33.65625 31.34375 41.25 31.34375 50.609375 C 32.117188 73.042969 64.402344 73.039062 65.171875 50.609375 C 65.171875 41.25 57.601562 33.65625 48.257812 33.65625 Z M 56.007812 52.644531 C 56.628906 65.289062 39.894531 65.253906 40.507812 52.644531 C 40.222656 46.46875 40.625 39.171875 48.25 39.167969 C 55.855469 39.183594 56.300781 46.476562 56.007812 52.644531 Z M 56.007812 52.644531 " fill-opacity="1" fill-rule="nonzero"/></g><path fill="#ff931e" d="M 50.855469 47.917969 C 50.75 49.960938 51.226562 55.390625 50.21875 56.953125 C 49.472656 58.472656 47.011719 58.4375 46.296875 56.914062 C 45.875 56.152344 45.667969 54.933594 45.667969 53.273438 C 45.769531 51.265625 45.296875 45.820312 46.320312 44.25 C 47.042969 42.738281 49.542969 42.777344 50.234375 44.328125 C 50.648438 45.125 50.855469 46.316406 50.855469 47.917969 Z M 50.855469 47.917969 " fill-opacity="1" fill-rule="nonzero"/><path fill="#ff931e" d="M 56.007812 109.121094 C 46.160156 109.121094 38.179688 117.121094 38.179688 126.988281 C 38.992188 150.636719 73.027344 150.628906 73.839844 126.988281 C 73.839844 117.121094 65.855469 109.121094 56.007812 109.121094 Z M 64.609375 133.742188 L 62.21875 133.742188 L 62.21875 138.730469 L 56.796875 138.730469 L 56.796875 133.742188 L 47.738281 133.742188 L 47.417969 130.425781 L 56.796875 115.296875 C 56.703125 115.160156 62.222656 115.296875 62.21875 115.25 C 62.21875 115.25 62.21875 129.550781 62.21875 129.550781 L 64.609375 129.550781 Z M 64.609375 133.742188 " fill-opacity="1" fill-rule="nonzero"/><path fill="#ff931e" d="M 56.796875 122.328125 L 56.796875 129.550781 L 52.582031 129.550781 L 56.460938 122.875 Z M 56.796875 122.328125 " fill-opacity="1" fill-rule="nonzero"/><path fill="#ff931e" d="M 149.1875 120.96875 C 133.578125 120.96875 120.914062 133.644531 120.914062 149.285156 C 122.40625 186.839844 175.96875 186.84375 177.449219 149.285156 C 177.449219 133.644531 164.796875 120.96875 149.1875 120.96875 Z M 160.851562 162.113281 C 156.183594 170.796875 141.828125 170.390625 137.625 161.46875 C 135.890625 158.460938 135.726562 153.964844 135.84375 150.300781 C 135.84375 146.460938 136.660156 143.015625 138.304688 139.953125 C 141.808594 133.269531 149.253906 129.75 156.757812 130.152344 C 156.757812 130.152344 156.757812 136.929688 156.757812 136.929688 L 156.375 136.929688 C 150.445312 136.886719 145.648438 139.820312 144.648438 145.667969 C 156.046875 136.363281 166.953125 150.636719 160.851562 162.113281 Z M 160.851562 162.113281 " fill-opacity="1" fill-rule="nonzero"/><path fill="#ff931e" d="M 153.902344 155.617188 C 154.046875 163.773438 143.859375 164.152344 144.4375 154.75 C 144.4375 154.75 144.4375 152.171875 144.4375 152.171875 C 147.359375 147.003906 154.332031 149.667969 153.902344 155.617188 Z M 153.902344 155.617188 " fill-opacity="1" fill-rule="nonzero"/><g clip-path="url(#5f564848c8)"><path fill="#ff931e" d="M 212.183594 157.953125 C 198.691406 157.953125 187.757812 168.910156 187.757812 182.425781 C 189.042969 214.894531 235.332031 214.875 236.617188 182.425781 C 236.617188 168.910156 225.671875 157.953125 212.183594 157.953125 Z M 220.425781 196.46875 C 216.785156 199.816406 207.65625 199.777344 204.003906 196.457031 C 199.300781 192.746094 200.226562 184.238281 206.058594 181.953125 C 200.800781 179.613281 200.289062 171.695312 204.519531 168.320312 C 207.992188 165.066406 216.441406 165.089844 219.898438 168.320312 C 224.117188 171.6875 223.621094 179.589844 218.402344 181.953125 C 224.117188 184.269531 225.058594 192.769531 220.425781 196.46875 Z M 220.425781 196.46875 " fill-opacity="1" fill-rule="nonzero"/></g><path fill="#ff931e" d="M 215.933594 189.066406 C 216.1875 194.617188 208.238281 194.535156 208.460938 189.066406 C 208.117188 183.589844 216.289062 183.582031 215.933594 189.066406 Z M 215.933594 189.066406 " fill-opacity="1" fill-rule="nonzero"/><path fill="#ff931e" d="M 215.292969 175.347656 C 215.597656 180.5 208.847656 180.441406 209.125 175.347656 C 208.800781 170.363281 215.617188 170.402344 215.292969 175.347656 Z M 215.292969 175.347656 " fill-opacity="1" fill-rule="nonzero"/><path fill="#ff931e" d="M 128.859375 188.480469 C 117.632812 188.480469 108.535156 197.59375 108.535156 208.84375 C 109.527344 235.824219 148.191406 235.820312 149.183594 208.84375 C 149.183594 197.59375 140.082031 188.480469 128.859375 188.480469 Z M 138.179688 208.175781 C 138.527344 216.695312 132.097656 223.070312 123.628906 222.601562 C 123.628906 222.601562 123.628906 217.640625 123.628906 217.640625 C 127.996094 217.832031 131.546875 215.925781 131.898438 211.882812 C 130.566406 213.085938 129.078125 213.683594 127.425781 213.683594 C 120.402344 213.964844 117.734375 205.363281 120.726562 199.859375 C 123.917969 193.492188 134.050781 193.519531 136.953125 200.179688 C 138.121094 202.347656 138.261719 205.546875 138.179688 208.175781 Z M 138.179688 208.175781 " fill-opacity="1" fill-rule="nonzero"/><path fill="#ff931e" d="M 131.996094 204.894531 L 131.996094 207.46875 C 131.410156 208.636719 130.441406 209.21875 129.097656 209.21875 C 124.558594 209.289062 124.65625 200.261719 128.804688 199.859375 C 131.367188 200.003906 131.960938 202.210938 131.996094 204.894531 Z M 131.996094 204.894531 " fill-opacity="1" fill-rule="nonzero"/><g fill="#ffffff" fill-opacity="1"><g transform="translate(143.720253, 326.223156)"><g><path d="M 26.0625 -35.28125 L 26.0625 -31.859375 L 9.484375 -31.859375 L 9.484375 -19.015625 L 24.390625 -19.015625 L 24.390625 -15.5625 L 9.484375 -15.5625 L 9.484375 0 L 5.328125 0 L 5.328125 -35.28125 Z M 26.0625 -35.28125 "/></g></g></g><g fill="#ffffff" fill-opacity="1"><g transform="translate(171.688251, 326.223156)"><g><path d="M 6.609375 -31.75 C 5.773438 -31.75 5.09375 -32.007812 4.5625 -32.53125 C 4.039062 -33.0625 3.78125 -33.726562 3.78125 -34.53125 C 3.78125 -35.332031 4.039062 -35.992188 4.5625 -36.515625 C 5.09375 -37.046875 5.773438 -37.3125 6.609375 -37.3125 C 7.441406 -37.3125 8.117188 -37.046875 8.640625 -36.515625 C 9.171875 -35.992188 9.4375 -35.332031 9.4375 -34.53125 C 9.4375 -33.726562 9.171875 -33.0625 8.640625 -32.53125 C 8.117188 -32.007812 7.441406 -31.75 6.609375 -31.75 Z M 4.640625 0 L 4.640625 -26.625 L 8.5625 -26.625 L 8.5625 0 Z M 4.640625 0 "/></g></g></g><g fill="#ffffff" fill-opacity="1"><g transform="translate(184.887998, 326.223156)"><g><path d="M 21.28125 0 L 1.8125 0 L 1.8125 -3.421875 L 16.4375 -22.90625 L 16.28125 -23.40625 L 2.40625 -23.40625 L 2.40625 -26.640625 L 21.0625 -26.640625 L 21.0625 -23.21875 L 6.4375 -3.734375 L 6.609375 -3.234375 L 21.28125 -3.234375 Z M 21.28125 0 "/></g></g></g><g fill="#ffffff" fill-opacity="1"><g transform="translate(208.078032, 326.223156)"><g><path d="M 21.28125 0 L 1.8125 0 L 1.8125 -3.421875 L 16.4375 -22.90625 L 16.28125 -23.40625 L 2.40625 -23.40625 L 2.40625 -26.640625 L 21.0625 -26.640625 L 21.0625 -23.21875 L 6.4375 -3.734375 L 6.609375 -3.234375 L 21.28125 -3.234375 Z M 21.28125 0 "/></g></g></g><g fill="#ffffff" fill-opacity="1"><g transform="translate(236.801108, 325.943239)"><g><path d="M 5.328125 0 L 5.328125 -35.296875 L 18.703125 -35.296875 C 20.878906 -35.296875 22.722656 -34.945312 24.234375 -34.25 C 25.742188 -33.5625 26.878906 -32.578125 27.640625 -31.296875 C 28.410156 -30.015625 28.796875 -28.488281 28.796875 -26.71875 C 28.796875 -25.1875 28.378906 -23.800781 27.546875 -22.5625 C 26.722656 -21.332031 25.539062 -20.367188 24 -19.671875 L 24 -19.171875 C 26.34375 -18.585938 28.117188 -17.53125 29.328125 -16 C 30.546875 -14.476562 31.15625 -12.554688 31.15625 -10.234375 C 31.15625 -6.953125 30.191406 -4.425781 28.265625 -2.65625 C 26.347656 -0.882812 23.5 0 19.71875 0 Z M 18.515625 -20.46875 C 20.460938 -20.46875 21.972656 -20.976562 23.046875 -22 C 24.128906 -23.019531 24.671875 -24.425781 24.671875 -26.21875 C 24.671875 -28.101562 24.148438 -29.515625 23.109375 -30.453125 C 22.078125 -31.390625 20.546875 -31.859375 18.515625 -31.859375 L 9.484375 -31.859375 L 9.484375 -20.46875 Z M 19.40625 -3.421875 C 24.425781 -3.421875 26.9375 -5.691406 26.9375 -10.234375 C 26.9375 -14.773438 24.425781 -17.046875 19.40625 -17.046875 L 9.484375 -17.046875 L 9.484375 -3.421875 Z M 19.40625 -3.421875 "/></g></g></g><g fill="#ffffff" fill-opacity="1"><g transform="translate(270.75988, 325.943239)"><g><path d="M 13.15625 0.5 C 10.144531 0.5 7.898438 -0.289062 6.421875 -1.875 C 4.953125 -3.46875 4.21875 -5.804688 4.21875 -8.890625 L 4.21875 -26.625 L 8.15625 -26.625 L 8.15625 -8.984375 C 8.15625 -4.941406 10.054688 -2.921875 13.859375 -2.921875 C 16.273438 -2.921875 18.179688 -3.707031 19.578125 -5.28125 C 20.972656 -6.863281 21.671875 -9.425781 21.671875 -12.96875 L 21.671875 -26.625 L 25.609375 -26.625 L 25.609375 0 L 21.890625 0 L 21.890625 -4.171875 L 21.390625 -4.296875 C 20.472656 -2.671875 19.375 -1.460938 18.09375 -0.671875 C 16.8125 0.109375 15.164062 0.5 13.15625 0.5 Z M 13.15625 0.5 "/></g></g></g><g fill="#ffffff" fill-opacity="1"><g transform="translate(301.001772, 325.943239)"><g><path d="M 21.296875 0 L 1.8125 0 L 1.8125 -3.421875 L 16.4375 -22.90625 L 16.296875 -23.421875 L 2.40625 -23.421875 L 2.40625 -26.65625 L 21.078125 -26.65625 L 21.078125 -23.21875 L 6.4375 -3.734375 L 6.609375 -3.234375 L 21.296875 -3.234375 Z M 21.296875 0 "/></g></g></g><g fill="#ffffff" fill-opacity="1"><g transform="translate(324.196072, 325.943239)"><g><path d="M 21.296875 0 L 1.8125 0 L 1.8125 -3.421875 L 16.4375 -22.90625 L 16.296875 -23.421875 L 2.40625 -23.421875 L 2.40625 -26.65625 L 21.078125 -26.65625 L 21.078125 -23.21875 L 6.4375 -3.734375 L 6.609375 -3.234375 L 21.296875 -3.234375 Z M 21.296875 0 "/></g></g></g></svg>